<svg data-v-fde0c5aa="" xmlns="http://www.w3.org/2000/svg" viewBox="0 0 300 300" class="iconLeft"><!----><defs data-v-fde0c5aa=""><linearGradient data-v-fde0c5aa="" gradientTransform="rotate(25)" id="e3687404-7223-458f-9298-94c607f15da4" x1="0%" y1="0%" x2="100%" y2="0%"><stop data-v-fde0c5aa="" offset="0%" stop-color="#894B48" stop-opacity="1"></stop><stop data-v-fde0c5aa="" offset="100%" stop-color="#D59F89" stop-opacity="1"></stop></linearGradient></defs><rect data-v-fde0c5aa="" fill="url(#e3687404-7223-458f-9298-94c607f15da4)" x="0" y="0" width="300px" height="300px" class="logo-background-square"></rect><defs data-v-fde0c5aa=""><!----></defs><g data-v-fde0c5aa="" id="fd82efaa-1078-40df-9478-2b5035884bb6" fill="#ffffff" transform="matrix(3.9540066548512227,0,0,3.9540066548512227,102.1165202827367,113.28704881303993)"><path d="M8.44 4.33L8.44 4.33L8.44 4.33Q8.86 4.33 9.30 4.25L9.30 4.25L9.30 4.25Q9.73 4.17 10.07 4.03L10.07 4.03L10.07 4.03Q10.05 4.93 9.61 5.37L9.61 5.37L9.61 5.37Q9.17 5.81 8.32 5.81L8.32 5.81L8.32 5.81Q7.91 5.81 7.41 5.74L7.41 5.74L7.41 5.74Q6.92 5.67 6.15 5.50L6.15 5.50L4.21 14.49L2.20 14.49L4.19 5.22L4.02 5.22L4.02 5.22Q2.66 5.22 2.02 5.91L2.02 5.91L2.02 5.91Q1.39 6.61 1.39 8.05L1.39 8.05L1.39 8.05Q1.39 8.32 1.42 8.51L1.42 8.51L1.42 8.51Q1.46 8.71 1.54 8.89L1.54 8.89L1.54 8.89Q1.57 8.95 1.57 8.97L1.57 8.97L1.57 8.97Q1.58 8.99 1.58 9.00L1.58 9.00L1.58 9.00Q0.80 9.00 0.44 8.67L0.44 8.67L0.44 8.67Q0.08 8.34 0.08 7.64L0.08 7.64L0.08 7.64Q0.08 5.98 1.34 4.99L1.34 4.99L1.34 4.99Q2.59 4.00 4.86 4.00L4.86 4.00L4.86 4.00Q5.32 4.00 5.75 4.04L5.75 4.04L5.75 4.04Q6.17 4.07 6.85 4.17L6.85 4.17L6.85 4.17Q7.43 4.27 7.76 4.30L7.76 4.30L7.76 4.30Q8.09 4.33 8.44 4.33ZM6.54 12.33L6.54 12.33L6.54 12.33Q6.54 11.54 6.80 10.64L6.80 10.64L6.80 10.64Q7.06 9.74 7.50 9.04L7.50 9.04L7.50 9.04Q8.02 8.22 8.75 7.79L8.75 7.79L8.75 7.79Q9.48 7.36 10.37 7.36L10.37 7.36L10.37 7.36Q11.27 7.36 11.72 7.92L11.72 7.92L11.72 7.92Q12.17 8.48 12.17 9.60L12.17 9.60L12.17 9.60Q12.19 9.62 12.23 9.63L12.23 9.63L12.23 9.63Q12.26 9.63 12.32 9.63L12.32 9.63L12.32 9.63Q12.75 9.63 13.36 9.39L13.36 9.39L13.36 9.39Q13.96 9.16 14.48 8.79L14.48 8.79L14.60 9.17L14.60 9.17Q14.21 9.59 13.56 9.90L13.56 9.90L13.56 9.90Q12.91 10.21 12.12 10.33L12.12 10.33L12.12 10.33Q11.96 12.22 11.03 13.38L11.03 13.38L11.03 13.38Q10.11 14.55 8.78 14.55L8.78 14.55L8.78 14.55Q7.69 14.55 7.11 13.99L7.11 13.99L7.11 13.99Q6.54 13.43 6.54 12.33ZM10.49 8.22L10.49 8.22L10.49 8.22Q9.81 8.22 9.22 9.58L9.22 9.58L9.22 9.58Q8.62 10.93 8.62 12.15L8.62 12.15L8.62 12.15Q8.62 12.81 8.77 13.05L8.77 13.05L8.77 13.05Q8.92 13.29 9.34 13.29L9.34 13.29L9.34 13.29Q9.86 13.29 10.32 12.45L10.32 12.45L10.32 12.45Q10.79 11.61 10.96 10.37L10.96 10.37L10.96 10.37Q10.77 10.33 10.68 10.19L10.68 10.19L10.68 10.19Q10.58 10.04 10.58 9.79L10.58 9.79L10.58 9.79Q10.58 9.52 10.70 9.32L10.70 9.32L10.70 9.32Q10.81 9.13 11.02 9.03L11.02 9.03L11.02 9.03Q10.99 8.58 10.87 8.40L10.87 8.40L10.87 8.40Q10.75 8.22 10.49 8.22ZM15.16 12.12L15.16 12.12L15.16 12.12Q15.16 12.67 15.32 12.94L15.32 12.94L15.32 12.94Q15.47 13.22 15.86 13.22L15.86 13.22L15.86 13.22Q16.21 13.22 16.55 12.89L16.55 12.89L16.55 12.89Q16.88 12.56 17.01 12.05L17.01 12.05L17.01 11.98L17.70 8.78L17.70 8.78Q17.65 8.55 17.51 8.42L17.51 8.42L17.51 8.42Q17.36 8.29 17.12 8.29L17.12 8.29L17.12 8.29Q16.35 8.29 15.76 9.58L15.76 9.58L15.76 9.58Q15.16 10.86 15.16 12.12ZM17.82 8.13L17.82 8.13L17.82 8.19L18.51 4.97L20.58 4.69L18.97 12.25L18.97 12.25Q18.94 12.38 18.93 12.48L18.93 12.48L18.93 12.48Q18.91 12.59 18.91 12.70L18.91 12.70L18.91 12.70Q18.91 12.98 19.05 13.10L19.05 13.10L19.05 13.10Q19.18 13.22 19.49 13.22L19.49 13.22L19.49 13.22Q19.85 13.22 20.15 12.89L20.15 12.89L20.15 12.89Q20.44 12.57 20.62 11.98L20.62 11.98L21.21 11.98L21.21 11.98Q20.78 13.23 20.08 13.86L20.08 13.86L20.08 13.86Q19.39 14.49 18.40 14.49L18.40 14.49L18.40 14.49Q17.82 14.49 17.46 14.18L17.46 14.18L17.46 14.18Q17.11 13.86 17.02 13.29L17.02 13.29L17.02 13.29Q16.60 13.93 16.09 14.25L16.09 14.25L16.09 14.25Q15.57 14.57 14.95 14.57L14.95 14.57L14.95 14.57Q14.08 14.57 13.59 13.99L13.59 13.99L13.59 13.99Q13.09 13.40 13.09 12.32L13.09 12.32L13.09 12.32Q13.09 11.54 13.33 10.68L13.33 10.68L13.33 10.68Q13.57 9.83 13.99 9.13L13.99 9.13L13.99 9.13Q14.50 8.30 15.19 7.86L15.19 7.86L15.19 7.86Q15.88 7.42 16.69 7.42L16.69 7.42L16.69 7.42Q17.23 7.42 17.53 7.61L17.53 7.61L17.53 7.61Q17.82 7.80 17.82 8.13ZM20.17 12.33L20.17 12.33L20.17 12.33Q20.17 11.54 20.43 10.64L20.43 10.64L20.43 10.64Q20.69 9.74 21.14 9.04L21.14 9.04L21.14 9.04Q21.66 8.22 22.39 7.79L22.39 7.79L22.39 7.79Q23.11 7.36 24.01 7.36L24.01 7.36L24.01 7.36Q24.91 7.36 25.35 7.92L25.35 7.92L25.35 7.92Q25.80 8.48 25.80 9.60L25.80 9.60L25.80 9.60Q25.83 9.62 25.87 9.63L25.87 9.63L25.87 9.63Q25.90 9.63 25.96 9.63L25.96 9.63L25.96 9.63Q26.39 9.63 26.99 9.39L26.99 9.39L26.99 9.39Q27.59 9.16 28.11 8.79L28.11 8.79L28.24 9.17L28.24 9.17Q27.85 9.59 27.20 9.90L27.20 9.90L27.20 9.90Q26.54 10.21 25.76 10.33L25.76 10.33L25.76 10.33Q25.59 12.22 24.67 13.38L24.67 13.38L24.67 13.38Q23.74 14.55 22.41 14.55L22.41 14.55L22.41 14.55Q21.32 14.55 20.75 13.99L20.75 13.99L20.75 13.99Q20.17 13.43 20.17 12.33ZM24.12 8.22L24.12 8.22L24.12 8.22Q23.45 8.22 22.86 9.58L22.86 9.58L22.86 9.58Q22.26 10.93 22.26 12.15L22.26 12.15L22.26 12.15Q22.26 12.81 22.41 13.05L22.41 13.05L22.41 13.05Q22.55 13.29 22.97 13.29L22.97 13.29L22.97 13.29Q23.49 13.29 23.96 12.45L23.96 12.45L23.96 12.45Q24.43 11.61 24.60 10.37L24.60 10.37L24.60 10.37Q24.40 10.33 24.31 10.19L24.31 10.19L24.31 10.19Q24.22 10.04 24.22 9.79L24.22 9.79L24.22 9.79Q24.22 9.52 24.33 9.32L24.33 9.32L24.33 9.32Q24.44 9.13 24.65 9.03L24.65 9.03L24.65 9.03Q24.63 8.58 24.51 8.40L24.51 8.40L24.51 8.40Q24.39 8.22 24.12 8.22ZM29.97 5.63L29.97 5.63L29.97 5.63Q29.97 6.09 29.65 6.41L29.65 6.41L29.65 6.41Q29.32 6.73 28.85 6.73L28.85 6.73L28.85 6.73Q28.39 6.73 28.07 6.41L28.07 6.41L28.07 6.41Q27.75 6.09 27.75 5.63L27.75 5.63L27.75 5.63Q27.75 5.17 28.07 4.84L28.07 4.84L28.07 4.84Q28.39 4.51 28.85 4.51L28.85 4.51L28.85 4.51Q29.32 4.51 29.65 4.84L29.65 4.84L29.65 4.84Q29.97 5.17 29.97 5.63ZM26.40 12.89L26.40 12.89L26.40 12.89Q26.40 12.71 26.43 12.48L26.43 12.48L26.43 12.48Q26.46 12.25 26.52 11.98L26.52 11.98L27.47 7.49L29.48 7.49L28.48 12.25L28.48 12.25Q28.45 12.38 28.43 12.48L28.43 12.48L28.43 12.48Q28.42 12.59 28.42 12.70L28.42 12.70L28.42 12.70Q28.42 12.98 28.55 13.10L28.55 13.10L28.55 13.10Q28.69 13.22 28.99 13.22L28.99 13.22L28.99 13.22Q29.39 13.22 29.74 12.87L29.74 12.87L29.74 12.87Q30.09 12.53 30.25 11.98L30.25 11.98L30.84 11.98L30.84 11.98Q30.39 13.26 29.64 13.92L29.64 13.92L29.64 13.92Q28.88 14.57 27.90 14.57L27.90 14.57L27.90 14.57Q27.20 14.57 26.80 14.13L26.80 14.13L26.80 14.13Q26.40 13.69 26.40 12.89ZM34.65 12.15L34.65 12.15L34.65 12.15Q34.65 12.32 34.64 12.45L34.64 12.45L34.64 12.45Q34.62 12.57 34.59 12.68L34.59 12.68L34.59 12.68Q34.87 12.52 35.14 12.33L35.14 12.33L35.14 12.33Q35.41 12.15 35.60 11.98L35.60 11.98L36.19 11.98L36.19 11.98Q35.76 12.49 35.23 12.92L35.23 12.92L35.23 12.92Q34.71 13.34 34.05 13.73L34.05 13.73L34.05 13.73Q33.67 14.14 33.08 14.36L33.08 14.36L33.08 14.36Q32.49 14.57 31.85 14.57L31.85 14.57L31.85 14.57Q30.91 14.57 30.36 14.06L30.36 14.06L30.36 14.06Q29.81 13.55 29.81 12.78L29.81 12.78L29.81 12.78Q29.81 12.35 30.02 11.99L30.02 11.99L30.02 11.99Q30.23 11.63 30.55 11.48L30.55 11.48L30.55 11.48Q31.02 10.63 31.44 9.65L31.44 9.65L31.44 9.65Q31.85 8.68 32.27 7.34L32.27 7.34L34.34 7.06L34.34 7.06Q34.38 8.11 34.44 8.97L34.44 8.97L34.44 8.97Q34.50 9.84 34.58 10.86L34.58 10.86L34.58 10.86Q34.62 11.45 34.64 11.69L34.64 11.69L34.64 11.69Q34.65 11.93 34.65 12.15ZM32.35 8.85L32.35 8.85L32.35 8.85Q32.17 9.42 31.91 10.04L31.91 10.04L31.91 10.04Q31.65 10.67 31.22 11.49L31.22 11.49L31.22 11.49Q31.37 11.56 31.46 11.69L31.46 11.69L31.46 11.69Q31.54 11.82 31.54 11.98L31.54 11.98L31.54 11.98Q31.54 12.25 31.36 12.46L31.36 12.46L31.36 12.46Q31.18 12.67 30.93 12.67L30.93 12.67L30.93 12.67Q30.79 12.67 30.69 12.62L30.69 12.62L30.69 12.62Q30.59 12.57 30.55 12.49L30.55 12.49L30.55 12.49Q30.55 13.01 30.75 13.24L30.75 13.24L30.75 13.24Q30.95 13.47 31.40 13.47L31.40 13.47L31.40 13.47Q31.98 13.47 32.30 13.13L32.30 13.13L32.30 13.13Q32.62 12.80 32.62 12.17L32.62 12.17L32.62 12.17Q32.62 11.97 32.61 11.77L32.61 11.77L32.61 11.77Q32.59 11.56 32.55 11.09L32.55 11.09L32.55 11.09Q32.48 10.43 32.44 9.93L32.44 9.93L32.44 9.93Q32.40 9.42 32.35 8.85ZM35.98 8.05L36.09 7.49L36.55 7.49L36.97 5.56L39.05 5.28L38.57 7.49L39.41 7.49L39.30 8.05L38.46 8.05L37.56 12.25L37.56 12.25Q37.53 12.38 37.52 12.48L37.52 12.48L37.52 12.48Q37.51 12.59 37.51 12.70L37.51 12.70L37.51 12.70Q37.51 12.98 37.64 13.10L37.64 13.10L37.64 13.10Q37.77 13.22 38.08 13.22L38.08 13.22L38.08 13.22Q38.47 13.22 38.82 12.87L38.82 12.87L38.82 12.87Q39.17 12.53 39.34 11.98L39.34 11.98L39.93 11.98L39.93 11.98Q39.48 13.26 38.72 13.92L38.72 13.92L38.72 13.92Q37.97 14.57 36.99 14.57L36.99 14.57L36.99 14.57Q36.29 14.57 35.89 14.13L35.89 14.13L35.89 14.13Q35.49 13.69 35.49 12.89L35.49 12.89L35.49 12.89Q35.49 12.71 35.52 12.48L35.52 12.48L35.52 12.48Q35.55 12.25 35.60 11.98L35.60 11.98L36.44 8.05L35.98 8.05Z"></path></g><defs data-v-fde0c5aa=""><!----></defs><g data-v-fde0c5aa="" id="1af46fa7-b51d-46d9-84ce-1befd9a388f5" stroke="none" fill="#ffffff" transform="matrix(2.287984632826524,0,0,2.287984632826524,-38.24907618826086,47.040695886790786)"><path d="M53 31.3H37c-1.6 0-2.8 1.3-2.8 2.8v21.8c0 1.6 1.3 2.8 2.8 2.8h16c1.6 0 2.8-1.3 2.8-2.8V34.1c.1-1.5-1.2-2.8-2.8-2.8zm-3.4 20.4h-9.3c-.6 0-1.1-.5-1.1-1.1 0-.6.5-1.1 1.1-1.1h9.3c.6 0 1.1.5 1.1 1.1 0 .6-.5 1.1-1.1 1.1zm0-5.6h-9.3c-.6 0-1.1-.5-1.1-1.1 0-.6.5-1.1 1.1-1.1h9.3c.6 0 1.1.5 1.1 1.1 0 .6-.5 1.1-1.1 1.1zm0-5.7h-9.3c-.6 0-1.1-.5-1.1-1.1 0-.6.5-1.1 1.1-1.1h9.3c.6 0 1.1.5 1.1 1.1 0 .6-.5 1.1-1.1 1.1z"></path></g><!----></svg>